<mxfile host="app.diagrams.net" modified="2024-06-02T05:06:51.144Z" agent="Mozilla/5.0 (Macintosh; Intel Mac OS X 10_15_7) AppleWebKit/537.36 (KHTML, like Gecko) Chrome/125.0.0.0 Safari/537.36" etag="q2bHlE88v54oh3m-nY3m" version="24.4.4" type="device">
  <diagram name="第 1 页" id="F8yw8HJ9R7u9E6YPBLMe">
    <mxGraphModel dx="1195" dy="792" grid="1" gridSize="10" guides="1" tooltips="1" connect="1" arrows="1" fold="1" page="1" pageScale="1" pageWidth="827" pageHeight="1169" math="0" shadow="0">
      <root>
        <mxCell id="0" />
        <mxCell id="1" parent="0" />
        <mxCell id="xipCwSdCyqECqqn3WW9y-21" style="edgeStyle=orthogonalEdgeStyle;rounded=0;orthogonalLoop=1;jettySize=auto;html=1;entryX=0;entryY=0.5;entryDx=0;entryDy=0;" edge="1" parent="1" source="xipCwSdCyqECqqn3WW9y-1" target="xipCwSdCyqECqqn3WW9y-2">
          <mxGeometry relative="1" as="geometry" />
        </mxCell>
        <mxCell id="xipCwSdCyqECqqn3WW9y-1" value="加锁开始" style="ellipse;whiteSpace=wrap;html=1;" vertex="1" parent="1">
          <mxGeometry x="100" y="135" width="100" height="70" as="geometry" />
        </mxCell>
        <mxCell id="xipCwSdCyqECqqn3WW9y-18" style="edgeStyle=orthogonalEdgeStyle;rounded=0;orthogonalLoop=1;jettySize=auto;html=1;entryX=0.5;entryY=0;entryDx=0;entryDy=0;" edge="1" parent="1" source="xipCwSdCyqECqqn3WW9y-2" target="xipCwSdCyqECqqn3WW9y-4">
          <mxGeometry relative="1" as="geometry" />
        </mxCell>
        <mxCell id="xipCwSdCyqECqqn3WW9y-2" value="&lt;span style=&quot;font-family: 默认字体; background-color: rgb(248, 249, 250);&quot;&gt;&lt;font style=&quot;font-size: 12px;&quot;&gt;从队列和集合中移除过期协程&lt;/font&gt;&lt;/span&gt;" style="rounded=1;whiteSpace=wrap;html=1;" vertex="1" parent="1">
          <mxGeometry x="260" y="140" width="180" height="60" as="geometry" />
        </mxCell>
        <mxCell id="xipCwSdCyqECqqn3WW9y-8" style="edgeStyle=orthogonalEdgeStyle;rounded=0;orthogonalLoop=1;jettySize=auto;html=1;entryX=0.5;entryY=0;entryDx=0;entryDy=0;" edge="1" parent="1" source="xipCwSdCyqECqqn3WW9y-4" target="xipCwSdCyqECqqn3WW9y-5">
          <mxGeometry relative="1" as="geometry" />
        </mxCell>
        <mxCell id="xipCwSdCyqECqqn3WW9y-19" value="获取到了" style="edgeLabel;html=1;align=center;verticalAlign=middle;resizable=0;points=[];" vertex="1" connectable="0" parent="xipCwSdCyqECqqn3WW9y-8">
          <mxGeometry x="-0.1822" y="-1" relative="1" as="geometry">
            <mxPoint as="offset" />
          </mxGeometry>
        </mxCell>
        <mxCell id="xipCwSdCyqECqqn3WW9y-15" style="edgeStyle=orthogonalEdgeStyle;rounded=0;orthogonalLoop=1;jettySize=auto;html=1;entryX=0;entryY=0.5;entryDx=0;entryDy=0;" edge="1" parent="1" source="xipCwSdCyqECqqn3WW9y-4" target="xipCwSdCyqECqqn3WW9y-27">
          <mxGeometry relative="1" as="geometry">
            <mxPoint x="690" y="170" as="targetPoint" />
            <Array as="points">
              <mxPoint x="640" y="290" />
              <mxPoint x="640" y="170" />
            </Array>
          </mxGeometry>
        </mxCell>
        <mxCell id="xipCwSdCyqECqqn3WW9y-16" value="未获取到，说明没有过期协程" style="edgeLabel;html=1;align=center;verticalAlign=middle;resizable=0;points=[];" vertex="1" connectable="0" parent="xipCwSdCyqECqqn3WW9y-15">
          <mxGeometry x="-0.7037" y="1" relative="1" as="geometry">
            <mxPoint x="16" y="1" as="offset" />
          </mxGeometry>
        </mxCell>
        <mxCell id="xipCwSdCyqECqqn3WW9y-4" value="获取队列头部协程" style="rhombus;whiteSpace=wrap;html=1;" vertex="1" parent="1">
          <mxGeometry x="280" y="250" width="140" height="80" as="geometry" />
        </mxCell>
        <mxCell id="xipCwSdCyqECqqn3WW9y-9" style="edgeStyle=orthogonalEdgeStyle;rounded=0;orthogonalLoop=1;jettySize=auto;html=1;entryX=0.5;entryY=0;entryDx=0;entryDy=0;" edge="1" parent="1" source="xipCwSdCyqECqqn3WW9y-5" target="xipCwSdCyqECqqn3WW9y-6">
          <mxGeometry relative="1" as="geometry" />
        </mxCell>
        <mxCell id="xipCwSdCyqECqqn3WW9y-5" value="在集合中查询此协程的分数&lt;div&gt;（即此协程的过期时间）&lt;/div&gt;" style="rounded=1;whiteSpace=wrap;html=1;" vertex="1" parent="1">
          <mxGeometry x="275" y="390" width="150" height="60" as="geometry" />
        </mxCell>
        <mxCell id="xipCwSdCyqECqqn3WW9y-10" style="edgeStyle=orthogonalEdgeStyle;rounded=0;orthogonalLoop=1;jettySize=auto;html=1;" edge="1" parent="1" source="xipCwSdCyqECqqn3WW9y-6" target="xipCwSdCyqECqqn3WW9y-7">
          <mxGeometry relative="1" as="geometry" />
        </mxCell>
        <mxCell id="xipCwSdCyqECqqn3WW9y-20" value="如果协程过期" style="edgeLabel;html=1;align=center;verticalAlign=middle;resizable=0;points=[];" vertex="1" connectable="0" parent="xipCwSdCyqECqqn3WW9y-10">
          <mxGeometry y="4" relative="1" as="geometry">
            <mxPoint x="-4" as="offset" />
          </mxGeometry>
        </mxCell>
        <mxCell id="xipCwSdCyqECqqn3WW9y-14" style="edgeStyle=orthogonalEdgeStyle;rounded=0;orthogonalLoop=1;jettySize=auto;html=1;entryX=0;entryY=0.5;entryDx=0;entryDy=0;" edge="1" parent="1" target="xipCwSdCyqECqqn3WW9y-27">
          <mxGeometry relative="1" as="geometry">
            <mxPoint x="408" y="520" as="sourcePoint" />
            <mxPoint x="880" y="180" as="targetPoint" />
            <Array as="points">
              <mxPoint x="408" y="520" />
              <mxPoint x="640" y="520" />
              <mxPoint x="640" y="170" />
            </Array>
          </mxGeometry>
        </mxCell>
        <mxCell id="xipCwSdCyqECqqn3WW9y-17" value="协程未过期，说明没有过期协程了" style="edgeLabel;html=1;align=center;verticalAlign=middle;resizable=0;points=[];" vertex="1" connectable="0" parent="xipCwSdCyqECqqn3WW9y-14">
          <mxGeometry x="-0.7225" y="-1" relative="1" as="geometry">
            <mxPoint y="-1" as="offset" />
          </mxGeometry>
        </mxCell>
        <mxCell id="xipCwSdCyqECqqn3WW9y-6" value="此协程是否过期" style="rhombus;whiteSpace=wrap;html=1;" vertex="1" parent="1">
          <mxGeometry x="292.5" y="480" width="115" height="80" as="geometry" />
        </mxCell>
        <mxCell id="xipCwSdCyqECqqn3WW9y-11" style="edgeStyle=orthogonalEdgeStyle;rounded=0;orthogonalLoop=1;jettySize=auto;html=1;entryX=0;entryY=0.5;entryDx=0;entryDy=0;" edge="1" parent="1" source="xipCwSdCyqECqqn3WW9y-7" target="xipCwSdCyqECqqn3WW9y-4">
          <mxGeometry relative="1" as="geometry">
            <Array as="points">
              <mxPoint x="350" y="750" />
              <mxPoint x="220" y="750" />
              <mxPoint x="220" y="290" />
            </Array>
          </mxGeometry>
        </mxCell>
        <mxCell id="xipCwSdCyqECqqn3WW9y-12" value="继续移除其他过期协程" style="edgeLabel;html=1;align=center;verticalAlign=middle;resizable=0;points=[];" vertex="1" connectable="0" parent="xipCwSdCyqECqqn3WW9y-11">
          <mxGeometry x="-0.9064" y="1" relative="1" as="geometry">
            <mxPoint x="-1" as="offset" />
          </mxGeometry>
        </mxCell>
        <mxCell id="xipCwSdCyqECqqn3WW9y-7" value="从队列和集合中移除此协程" style="rounded=1;whiteSpace=wrap;html=1;" vertex="1" parent="1">
          <mxGeometry x="290" y="630" width="120" height="60" as="geometry" />
        </mxCell>
        <mxCell id="xipCwSdCyqECqqn3WW9y-28" style="edgeStyle=orthogonalEdgeStyle;rounded=0;orthogonalLoop=1;jettySize=auto;html=1;exitX=0;exitY=0.5;exitDx=0;exitDy=0;entryX=0.5;entryY=0;entryDx=0;entryDy=0;" edge="1" parent="1" source="xipCwSdCyqECqqn3WW9y-22" target="xipCwSdCyqECqqn3WW9y-23">
          <mxGeometry relative="1" as="geometry" />
        </mxCell>
        <mxCell id="xipCwSdCyqECqqn3WW9y-29" value="如果成立。&lt;div&gt;说明这把锁空闲，&lt;/div&gt;&lt;div&gt;并且队列不存在或者&lt;/div&gt;&lt;div&gt;队列头部存在且头部是当前协程&lt;/div&gt;" style="edgeLabel;html=1;align=center;verticalAlign=middle;resizable=0;points=[];" vertex="1" connectable="0" parent="xipCwSdCyqECqqn3WW9y-28">
          <mxGeometry x="0.2057" y="1" relative="1" as="geometry">
            <mxPoint x="-1" y="13" as="offset" />
          </mxGeometry>
        </mxCell>
        <mxCell id="xipCwSdCyqECqqn3WW9y-31" style="edgeStyle=orthogonalEdgeStyle;rounded=0;orthogonalLoop=1;jettySize=auto;html=1;entryX=0.5;entryY=0;entryDx=0;entryDy=0;" edge="1" parent="1" source="xipCwSdCyqECqqn3WW9y-22" target="xipCwSdCyqECqqn3WW9y-24">
          <mxGeometry relative="1" as="geometry" />
        </mxCell>
        <mxCell id="xipCwSdCyqECqqn3WW9y-32" value="如果不成立，说明：&lt;div&gt;1. 哈希存在，已经有协程加锁了&lt;/div&gt;&lt;div&gt;2. 哈希不存在，队列存在且队列头部协程不是当前协程&lt;br&gt;&lt;div&gt;&lt;div&gt;&lt;br&gt;&lt;/div&gt;&lt;/div&gt;&lt;/div&gt;" style="edgeLabel;html=1;align=center;verticalAlign=middle;resizable=0;points=[];" vertex="1" connectable="0" parent="xipCwSdCyqECqqn3WW9y-31">
          <mxGeometry x="0.1838" y="3" relative="1" as="geometry">
            <mxPoint x="-3" y="22" as="offset" />
          </mxGeometry>
        </mxCell>
        <mxCell id="xipCwSdCyqECqqn3WW9y-22" value="(哈希不存在)&amp;nbsp;&lt;span style=&quot;background-color: initial;&quot;&gt;&amp;amp;&amp;amp;&lt;/span&gt;&lt;div&gt;（队列不存在 || 队列头部协程&lt;/div&gt;&lt;div&gt;是当前协程）&lt;/div&gt;" style="rhombus;whiteSpace=wrap;html=1;" vertex="1" parent="1">
          <mxGeometry x="840" y="270" width="200" height="90" as="geometry" />
        </mxCell>
        <mxCell id="xipCwSdCyqECqqn3WW9y-36" style="edgeStyle=orthogonalEdgeStyle;rounded=0;orthogonalLoop=1;jettySize=auto;html=1;entryX=0.5;entryY=0;entryDx=0;entryDy=0;" edge="1" parent="1" source="xipCwSdCyqECqqn3WW9y-23" target="xipCwSdCyqECqqn3WW9y-33">
          <mxGeometry relative="1" as="geometry" />
        </mxCell>
        <mxCell id="xipCwSdCyqECqqn3WW9y-23" value="处理锁空闲的场景" style="rounded=1;whiteSpace=wrap;html=1;" vertex="1" parent="1">
          <mxGeometry x="707" y="450" width="120" height="60" as="geometry" />
        </mxCell>
        <mxCell id="xipCwSdCyqECqqn3WW9y-46" style="edgeStyle=orthogonalEdgeStyle;rounded=0;orthogonalLoop=1;jettySize=auto;html=1;entryX=0.5;entryY=0;entryDx=0;entryDy=0;" edge="1" parent="1" source="xipCwSdCyqECqqn3WW9y-24" target="xipCwSdCyqECqqn3WW9y-42">
          <mxGeometry relative="1" as="geometry" />
        </mxCell>
        <mxCell id="xipCwSdCyqECqqn3WW9y-24" value="处理锁被占用的场景" style="rounded=1;whiteSpace=wrap;html=1;" vertex="1" parent="1">
          <mxGeometry x="1050" y="450" width="120" height="60" as="geometry" />
        </mxCell>
        <mxCell id="xipCwSdCyqECqqn3WW9y-30" style="edgeStyle=orthogonalEdgeStyle;rounded=0;orthogonalLoop=1;jettySize=auto;html=1;entryX=0.5;entryY=0;entryDx=0;entryDy=0;" edge="1" parent="1" source="xipCwSdCyqECqqn3WW9y-27" target="xipCwSdCyqECqqn3WW9y-22">
          <mxGeometry relative="1" as="geometry" />
        </mxCell>
        <mxCell id="xipCwSdCyqECqqn3WW9y-27" value="加锁流程" style="rounded=1;whiteSpace=wrap;html=1;" vertex="1" parent="1">
          <mxGeometry x="880" y="140" width="120" height="60" as="geometry" />
        </mxCell>
        <mxCell id="xipCwSdCyqECqqn3WW9y-37" style="edgeStyle=orthogonalEdgeStyle;rounded=0;orthogonalLoop=1;jettySize=auto;html=1;" edge="1" parent="1" source="xipCwSdCyqECqqn3WW9y-33" target="xipCwSdCyqECqqn3WW9y-34">
          <mxGeometry relative="1" as="geometry" />
        </mxCell>
        <mxCell id="xipCwSdCyqECqqn3WW9y-33" value="从队列头部移除此协程并且&lt;div&gt;从集合中移除此协程&lt;/div&gt;" style="rounded=1;whiteSpace=wrap;html=1;" vertex="1" parent="1">
          <mxGeometry x="692" y="555" width="150" height="60" as="geometry" />
        </mxCell>
        <mxCell id="xipCwSdCyqECqqn3WW9y-38" style="edgeStyle=orthogonalEdgeStyle;rounded=0;orthogonalLoop=1;jettySize=auto;html=1;entryX=0.5;entryY=0;entryDx=0;entryDy=0;" edge="1" parent="1" source="xipCwSdCyqECqqn3WW9y-34" target="xipCwSdCyqECqqn3WW9y-35">
          <mxGeometry relative="1" as="geometry" />
        </mxCell>
        <mxCell id="xipCwSdCyqECqqn3WW9y-39" value="当前协程可以加锁了" style="edgeLabel;html=1;align=center;verticalAlign=middle;resizable=0;points=[];" vertex="1" connectable="0" parent="xipCwSdCyqECqqn3WW9y-38">
          <mxGeometry x="-0.0861" y="3" relative="1" as="geometry">
            <mxPoint as="offset" />
          </mxGeometry>
        </mxCell>
        <mxCell id="xipCwSdCyqECqqn3WW9y-34" value="获取所有正在等待的协程，&lt;div&gt;减小他们的过期时间&lt;/div&gt;" style="rounded=1;whiteSpace=wrap;html=1;" vertex="1" parent="1">
          <mxGeometry x="690.5" y="670" width="153" height="60" as="geometry" />
        </mxCell>
        <mxCell id="xipCwSdCyqECqqn3WW9y-41" style="edgeStyle=orthogonalEdgeStyle;rounded=0;orthogonalLoop=1;jettySize=auto;html=1;entryX=0.5;entryY=0;entryDx=0;entryDy=0;" edge="1" parent="1" source="xipCwSdCyqECqqn3WW9y-35" target="xipCwSdCyqECqqn3WW9y-40">
          <mxGeometry relative="1" as="geometry" />
        </mxCell>
        <mxCell id="xipCwSdCyqECqqn3WW9y-35" value="设置哈希，表明加锁了。&lt;div&gt;同时设置哈希的过期时间&lt;/div&gt;" style="rounded=1;whiteSpace=wrap;html=1;" vertex="1" parent="1">
          <mxGeometry x="692" y="800" width="150" height="60" as="geometry" />
        </mxCell>
        <mxCell id="xipCwSdCyqECqqn3WW9y-40" value="加锁成功，返回" style="rounded=1;whiteSpace=wrap;html=1;" vertex="1" parent="1">
          <mxGeometry x="707" y="900" width="120" height="60" as="geometry" />
        </mxCell>
        <mxCell id="xipCwSdCyqECqqn3WW9y-47" value="如果成立，说明当前协程已经加锁了" style="edgeStyle=orthogonalEdgeStyle;rounded=0;orthogonalLoop=1;jettySize=auto;html=1;" edge="1" parent="1" source="xipCwSdCyqECqqn3WW9y-42" target="xipCwSdCyqECqqn3WW9y-45">
          <mxGeometry x="0.0159" relative="1" as="geometry">
            <mxPoint as="offset" />
          </mxGeometry>
        </mxCell>
        <mxCell id="xipCwSdCyqECqqn3WW9y-51" style="edgeStyle=orthogonalEdgeStyle;rounded=0;orthogonalLoop=1;jettySize=auto;html=1;entryX=0;entryY=0.5;entryDx=0;entryDy=0;" edge="1" parent="1" source="xipCwSdCyqECqqn3WW9y-42" target="xipCwSdCyqECqqn3WW9y-50">
          <mxGeometry relative="1" as="geometry" />
        </mxCell>
        <mxCell id="xipCwSdCyqECqqn3WW9y-52" value="如果不成立，&lt;div&gt;说明当前协程不能加锁&lt;/div&gt;" style="edgeLabel;html=1;align=center;verticalAlign=middle;resizable=0;points=[];" vertex="1" connectable="0" parent="xipCwSdCyqECqqn3WW9y-51">
          <mxGeometry x="-0.2745" y="-2" relative="1" as="geometry">
            <mxPoint x="14" y="-2" as="offset" />
          </mxGeometry>
        </mxCell>
        <mxCell id="xipCwSdCyqECqqn3WW9y-42" value="判断哈希是否存在，&lt;div&gt;并且哈希中是否为当前协程&lt;/div&gt;" style="rhombus;whiteSpace=wrap;html=1;" vertex="1" parent="1">
          <mxGeometry x="1022.5" y="550" width="175" height="100" as="geometry" />
        </mxCell>
        <mxCell id="xipCwSdCyqECqqn3WW9y-49" style="edgeStyle=orthogonalEdgeStyle;rounded=0;orthogonalLoop=1;jettySize=auto;html=1;entryX=0.5;entryY=0;entryDx=0;entryDy=0;" edge="1" parent="1" source="xipCwSdCyqECqqn3WW9y-43" target="xipCwSdCyqECqqn3WW9y-44">
          <mxGeometry relative="1" as="geometry" />
        </mxCell>
        <mxCell id="xipCwSdCyqECqqn3WW9y-43" value="哈希中当前协程的字段值加一（实现可重入锁）&lt;div&gt;且重新设置哈希的过期时间&lt;/div&gt;" style="rounded=1;whiteSpace=wrap;html=1;" vertex="1" parent="1">
          <mxGeometry x="980" y="820" width="260" height="60" as="geometry" />
        </mxCell>
        <mxCell id="xipCwSdCyqECqqn3WW9y-44" value="加锁成功，返回" style="rounded=1;whiteSpace=wrap;html=1;" vertex="1" parent="1">
          <mxGeometry x="1050" y="920" width="120" height="60" as="geometry" />
        </mxCell>
        <mxCell id="xipCwSdCyqECqqn3WW9y-48" style="edgeStyle=orthogonalEdgeStyle;rounded=0;orthogonalLoop=1;jettySize=auto;html=1;entryX=0.5;entryY=0;entryDx=0;entryDy=0;" edge="1" parent="1" source="xipCwSdCyqECqqn3WW9y-45" target="xipCwSdCyqECqqn3WW9y-43">
          <mxGeometry relative="1" as="geometry" />
        </mxCell>
        <mxCell id="xipCwSdCyqECqqn3WW9y-45" value="处理可重入锁的场景" style="rounded=1;whiteSpace=wrap;html=1;" vertex="1" parent="1">
          <mxGeometry x="1045" y="720" width="130" height="60" as="geometry" />
        </mxCell>
        <mxCell id="xipCwSdCyqECqqn3WW9y-54" style="edgeStyle=orthogonalEdgeStyle;rounded=0;orthogonalLoop=1;jettySize=auto;html=1;entryX=0.5;entryY=0;entryDx=0;entryDy=0;" edge="1" parent="1" source="xipCwSdCyqECqqn3WW9y-50" target="xipCwSdCyqECqqn3WW9y-53">
          <mxGeometry relative="1" as="geometry" />
        </mxCell>
        <mxCell id="xipCwSdCyqECqqn3WW9y-50" value="处理无法加锁的场景" style="rounded=1;whiteSpace=wrap;html=1;" vertex="1" parent="1">
          <mxGeometry x="1380" y="570" width="130" height="60" as="geometry" />
        </mxCell>
        <mxCell id="xipCwSdCyqECqqn3WW9y-56" style="edgeStyle=orthogonalEdgeStyle;rounded=0;orthogonalLoop=1;jettySize=auto;html=1;entryX=0.5;entryY=0;entryDx=0;entryDy=0;" edge="1" parent="1" source="xipCwSdCyqECqqn3WW9y-53" target="xipCwSdCyqECqqn3WW9y-55">
          <mxGeometry relative="1" as="geometry" />
        </mxCell>
        <mxCell id="xipCwSdCyqECqqn3WW9y-53" value="此时当前协程不能加锁，&lt;div&gt;那么如果当前协程不在队列中，则加入队列；&lt;/div&gt;&lt;div&gt;如果当前协程在队列中，返回过期时间&lt;/div&gt;" style="rounded=1;whiteSpace=wrap;html=1;" vertex="1" parent="1">
          <mxGeometry x="1320" y="680" width="250" height="60" as="geometry" />
        </mxCell>
        <mxCell id="xipCwSdCyqECqqn3WW9y-58" style="edgeStyle=orthogonalEdgeStyle;rounded=0;orthogonalLoop=1;jettySize=auto;html=1;entryX=0.5;entryY=0;entryDx=0;entryDy=0;" edge="1" parent="1" source="xipCwSdCyqECqqn3WW9y-55" target="xipCwSdCyqECqqn3WW9y-57">
          <mxGeometry relative="1" as="geometry" />
        </mxCell>
        <mxCell id="xipCwSdCyqECqqn3WW9y-59" value="如果获取到了" style="edgeLabel;html=1;align=center;verticalAlign=middle;resizable=0;points=[];" vertex="1" connectable="0" parent="xipCwSdCyqECqqn3WW9y-58">
          <mxGeometry x="-0.1833" y="-2" relative="1" as="geometry">
            <mxPoint as="offset" />
          </mxGeometry>
        </mxCell>
        <mxCell id="xipCwSdCyqECqqn3WW9y-61" style="edgeStyle=orthogonalEdgeStyle;rounded=0;orthogonalLoop=1;jettySize=auto;html=1;entryX=0;entryY=0.5;entryDx=0;entryDy=0;" edge="1" parent="1" source="xipCwSdCyqECqqn3WW9y-55" target="xipCwSdCyqECqqn3WW9y-60">
          <mxGeometry relative="1" as="geometry" />
        </mxCell>
        <mxCell id="xipCwSdCyqECqqn3WW9y-62" value="如果未获取到，&lt;div&gt;说明当前协程不在队列和集合中&lt;/div&gt;" style="edgeLabel;html=1;align=center;verticalAlign=middle;resizable=0;points=[];" vertex="1" connectable="0" parent="xipCwSdCyqECqqn3WW9y-61">
          <mxGeometry x="-0.2382" y="3" relative="1" as="geometry">
            <mxPoint x="21" y="3" as="offset" />
          </mxGeometry>
        </mxCell>
        <mxCell id="xipCwSdCyqECqqn3WW9y-55" value="从集合中获取当前&lt;div&gt;协程的过期时间&lt;/div&gt;" style="rhombus;whiteSpace=wrap;html=1;" vertex="1" parent="1">
          <mxGeometry x="1382.5" y="780" width="125" height="100" as="geometry" />
        </mxCell>
        <mxCell id="xipCwSdCyqECqqn3WW9y-57" value="加锁失败，&lt;div&gt;返回当前协程&lt;span style=&quot;background-color: initial;&quot;&gt;剩余的过期时间&lt;/span&gt;&lt;/div&gt;" style="rounded=1;whiteSpace=wrap;html=1;" vertex="1" parent="1">
          <mxGeometry x="1362.5" y="960" width="165" height="60" as="geometry" />
        </mxCell>
        <mxCell id="xipCwSdCyqECqqn3WW9y-67" style="edgeStyle=orthogonalEdgeStyle;rounded=0;orthogonalLoop=1;jettySize=auto;html=1;entryX=0.5;entryY=0;entryDx=0;entryDy=0;" edge="1" parent="1" source="xipCwSdCyqECqqn3WW9y-60" target="xipCwSdCyqECqqn3WW9y-63">
          <mxGeometry relative="1" as="geometry" />
        </mxCell>
        <mxCell id="xipCwSdCyqECqqn3WW9y-60" value="将当前协程加入到队列和集合中" style="rounded=1;whiteSpace=wrap;html=1;" vertex="1" parent="1">
          <mxGeometry x="1730" y="800" width="120" height="60" as="geometry" />
        </mxCell>
        <mxCell id="xipCwSdCyqECqqn3WW9y-69" style="edgeStyle=orthogonalEdgeStyle;rounded=0;orthogonalLoop=1;jettySize=auto;html=1;entryX=0.5;entryY=0;entryDx=0;entryDy=0;" edge="1" parent="1" source="xipCwSdCyqECqqn3WW9y-63" target="xipCwSdCyqECqqn3WW9y-64">
          <mxGeometry relative="1" as="geometry">
            <Array as="points">
              <mxPoint x="1660" y="955" />
              <mxPoint x="1660" y="1080" />
            </Array>
          </mxGeometry>
        </mxCell>
        <mxCell id="xipCwSdCyqECqqn3WW9y-70" value="如果命中，&lt;div&gt;从集合中找到 ”队列尾部协程“ 的过期时间，&lt;/div&gt;&lt;div&gt;作为构建当前协程过期时间的参数&lt;/div&gt;" style="edgeLabel;html=1;align=center;verticalAlign=middle;resizable=0;points=[];" vertex="1" connectable="0" parent="xipCwSdCyqECqqn3WW9y-69">
          <mxGeometry x="-0.2388" relative="1" as="geometry">
            <mxPoint y="-6" as="offset" />
          </mxGeometry>
        </mxCell>
        <mxCell id="xipCwSdCyqECqqn3WW9y-71" style="edgeStyle=orthogonalEdgeStyle;rounded=0;orthogonalLoop=1;jettySize=auto;html=1;entryX=0.5;entryY=0;entryDx=0;entryDy=0;" edge="1" parent="1" source="xipCwSdCyqECqqn3WW9y-63" target="xipCwSdCyqECqqn3WW9y-64">
          <mxGeometry relative="1" as="geometry">
            <Array as="points">
              <mxPoint x="1920" y="955" />
              <mxPoint x="1920" y="1080" />
              <mxPoint x="1790" y="1080" />
            </Array>
          </mxGeometry>
        </mxCell>
        <mxCell id="xipCwSdCyqECqqn3WW9y-72" value="如果未命中，&lt;div&gt;使用哈希的过期时间，&lt;/div&gt;&lt;div&gt;作为构建当前协程过期时间的参数&lt;/div&gt;" style="edgeLabel;html=1;align=center;verticalAlign=middle;resizable=0;points=[];" vertex="1" connectable="0" parent="xipCwSdCyqECqqn3WW9y-71">
          <mxGeometry x="-0.2842" relative="1" as="geometry">
            <mxPoint y="4" as="offset" />
          </mxGeometry>
        </mxCell>
        <mxCell id="xipCwSdCyqECqqn3WW9y-63" value="获取队列尾部协程，&lt;div&gt;判断是否为当前协程&lt;/div&gt;" style="rhombus;whiteSpace=wrap;html=1;" vertex="1" parent="1">
          <mxGeometry x="1720" y="910" width="140" height="90" as="geometry" />
        </mxCell>
        <mxCell id="xipCwSdCyqECqqn3WW9y-73" style="edgeStyle=orthogonalEdgeStyle;rounded=0;orthogonalLoop=1;jettySize=auto;html=1;exitX=0.5;exitY=1;exitDx=0;exitDy=0;entryX=0.5;entryY=0;entryDx=0;entryDy=0;" edge="1" parent="1" source="xipCwSdCyqECqqn3WW9y-64" target="xipCwSdCyqECqqn3WW9y-65">
          <mxGeometry relative="1" as="geometry" />
        </mxCell>
        <mxCell id="xipCwSdCyqECqqn3WW9y-64" value="构建当前协程的过期时间" style="rounded=1;whiteSpace=wrap;html=1;" vertex="1" parent="1">
          <mxGeometry x="1715" y="1119" width="150" height="50" as="geometry" />
        </mxCell>
        <mxCell id="xipCwSdCyqECqqn3WW9y-74" style="edgeStyle=orthogonalEdgeStyle;rounded=0;orthogonalLoop=1;jettySize=auto;html=1;entryX=0.5;entryY=0;entryDx=0;entryDy=0;" edge="1" parent="1" source="xipCwSdCyqECqqn3WW9y-65" target="xipCwSdCyqECqqn3WW9y-66">
          <mxGeometry relative="1" as="geometry" />
        </mxCell>
        <mxCell id="xipCwSdCyqECqqn3WW9y-65" value="将当前协程插入到队列和集合中，&lt;div&gt;集合分数为当前协程的过期时间&lt;/div&gt;" style="rounded=1;whiteSpace=wrap;html=1;" vertex="1" parent="1">
          <mxGeometry x="1697.5" y="1209" width="185" height="61" as="geometry" />
        </mxCell>
        <mxCell id="xipCwSdCyqECqqn3WW9y-66" value="加锁失败，&lt;div&gt;返回当前协程的过期时间&lt;/div&gt;" style="rounded=1;whiteSpace=wrap;html=1;" vertex="1" parent="1">
          <mxGeometry x="1715" y="1310" width="150" height="60" as="geometry" />
        </mxCell>
      </root>
    </mxGraphModel>
  </diagram>
</mxfile>
